<svg width="46" height="47" viewBox="0 0 46 47" fill="none" xmlns="http://www.w3.org/2000/svg">
<rect y="0.5" width="46" height="46" rx="6" fill="#262626"/>
<path fill-rule="evenodd" clip-rule="evenodd" d="M16.7856 29.7144C17.1663 30.0952 17.7837 30.0952 18.1644 29.7144L27.55 20.3289V27.725C27.55 28.2635 27.9865 28.7 28.525 28.7C29.0635 28.7 29.5 28.2635 29.5 27.725V17.975C29.5 17.4365 29.0635 17 28.525 17H18.775C18.2365 17 17.8 17.4365 17.8 17.975C17.8 18.5135 18.2365 18.95 18.775 18.95H26.1711L16.7856 28.3356C16.4048 28.7163 16.4048 29.3337 16.7856 29.7144Z" fill="#9EFF00"/>
<path fill-rule="evenodd" clip-rule="evenodd" d="M16.7856 29.7144C17.1663 30.0952 17.7837 30.0952 18.1644 29.7144L27.55 20.3289V27.725C27.55 28.2635 27.9865 28.7 28.525 28.7C29.0635 28.7 29.5 28.2635 29.5 27.725V17.975C29.5 17.4365 29.0635 17 28.525 17H18.775C18.2365 17 17.8 17.4365 17.8 17.975C17.8 18.5135 18.2365 18.95 18.775 18.95H26.1711L16.7856 28.3356C16.4048 28.7163 16.4048 29.3337 16.7856 29.7144Z" fill="black" fill-opacity="0.2"/>
</svg>
