<svg width="27" height="22" viewBox="0 0 27 22" fill="none" xmlns="http://www.w3.org/2000/svg">
<path d="M5.1281 16.8667L5.43498 18.0942C5.82369 19.69 6.67272 20.5084 8.36054 20.5084H19.3774C21.0755 20.5084 21.9143 19.7105 22.3132 18.0942L22.6201 16.8667H5.1281ZM4.79054 15.4653H22.9678L24.8909 7.58884L24.0521 7.10807L19.3365 10.5451C18.9887 10.7906 18.7534 10.6985 18.559 10.4224L14.1196 3.71198L13.6286 3.69152L9.14818 10.453C8.97429 10.719 8.76971 10.8008 8.42191 10.5553L3.79831 7.17968L2.8163 7.43541L4.79054 15.4653ZM3.19478 9.63465C4.54504 9.63465 5.62933 8.54017 5.62933 7.17968C5.62933 5.84988 4.54504 4.74512 3.19478 4.74512C1.84453 4.74512 0.75 5.83965 0.75 7.17968C0.75 8.54017 1.85475 9.63465 3.19478 9.63465ZM13.8741 5.37933C15.2141 5.37933 16.3086 4.28481 16.3086 2.93455C16.3086 1.60475 15.2141 0.5 13.8741 0.5C12.5136 0.5 11.4293 1.59453 11.4293 2.93455C11.4293 4.28481 12.5238 5.37933 13.8741 5.37933ZM24.5431 9.63465C25.8832 9.63465 26.9879 8.54017 26.9879 7.17968C26.9879 5.83965 25.8934 4.74512 24.5431 4.74512C23.2032 4.74512 22.1086 5.84988 22.1086 7.17968C22.1086 8.54017 23.2032 9.63465 24.5431 9.63465Z" fill="#9EFF00"/>
<path d="M5.1281 16.8667L5.43498 18.0942C5.82369 19.69 6.67272 20.5084 8.36054 20.5084H19.3774C21.0755 20.5084 21.9143 19.7105 22.3132 18.0942L22.6201 16.8667H5.1281ZM4.79054 15.4653H22.9678L24.8909 7.58884L24.0521 7.10807L19.3365 10.5451C18.9887 10.7906 18.7534 10.6985 18.559 10.4224L14.1196 3.71198L13.6286 3.69152L9.14818 10.453C8.97429 10.719 8.76971 10.8008 8.42191 10.5553L3.79831 7.17968L2.8163 7.43541L4.79054 15.4653ZM3.19478 9.63465C4.54504 9.63465 5.62933 8.54017 5.62933 7.17968C5.62933 5.84988 4.54504 4.74512 3.19478 4.74512C1.84453 4.74512 0.75 5.83965 0.75 7.17968C0.75 8.54017 1.85475 9.63465 3.19478 9.63465ZM13.8741 5.37933C15.2141 5.37933 16.3086 4.28481 16.3086 2.93455C16.3086 1.60475 15.2141 0.5 13.8741 0.5C12.5136 0.5 11.4293 1.59453 11.4293 2.93455C11.4293 4.28481 12.5238 5.37933 13.8741 5.37933ZM24.5431 9.63465C25.8832 9.63465 26.9879 8.54017 26.9879 7.17968C26.9879 5.83965 25.8934 4.74512 24.5431 4.74512C23.2032 4.74512 22.1086 5.84988 22.1086 7.17968C22.1086 8.54017 23.2032 9.63465 24.5431 9.63465Z" fill="black" fill-opacity="0.2"/>
</svg>
