<svg width="118" height="36" viewBox="0 0 118 36" fill="none" xmlns="http://www.w3.org/2000/svg">
<path d="M18.2288 0.565613C8.56389 0.565613 0.728516 8.40077 0.728516 18.0657C0.728516 27.7311 8.56389 35.5656 18.2288 35.5656C27.8948 35.5656 35.7294 27.7311 35.7294 18.0657C35.7294 8.40139 27.8948 0.566449 18.2286 0.566449L18.2288 0.565613ZM26.2544 25.8058C25.9409 26.3199 25.268 26.4829 24.7539 26.1673C20.645 23.6575 15.4724 23.0891 9.38077 24.4809C8.79376 24.6146 8.20863 24.2468 8.07488 23.6596C7.94051 23.0724 8.30684 22.4872 8.89532 22.3535C15.5617 20.8305 21.2799 21.4862 25.8929 24.3053C26.4069 24.6209 26.5699 25.2917 26.2544 25.8058ZM28.3964 21.0407C28.0014 21.6827 27.1613 21.8854 26.5198 21.4904C21.8157 18.599 14.6451 17.7617 9.0811 19.4506C8.35951 19.6686 7.59737 19.2619 7.37836 18.5416C7.16103 17.82 7.5679 17.0593 8.28825 16.8399C14.6439 14.9114 22.545 15.8456 27.9471 19.1651C28.5886 19.5601 28.7914 20.4002 28.3964 21.0409V21.0407ZM28.5803 16.0788C22.94 12.7287 13.6343 12.4206 8.24917 14.055C7.38442 14.3173 6.46994 13.8291 6.20788 12.9644C5.94583 12.0992 6.43358 11.1854 7.29895 10.9225C13.4807 9.04588 23.7571 9.40845 30.2508 13.2634C31.0303 13.7251 31.2853 14.7296 30.8234 15.5064C30.3637 16.2842 29.3564 16.5406 28.5811 16.0788H28.5803ZM48.3411 16.7207C45.3193 16.0002 44.7822 15.4945 44.7822 14.4318C44.7822 13.4279 45.7268 12.7523 47.1332 12.7523C48.4958 12.7523 49.8458 13.2653 51.2626 14.3215C51.3044 14.3535 51.3587 14.3662 51.411 14.3578C51.4653 14.3499 51.5113 14.3209 51.5426 14.2772L53.018 12.1974C53.0786 12.1118 53.0619 11.9937 52.9804 11.9283C51.294 10.5756 49.3965 9.91793 47.1771 9.91793C43.915 9.91793 41.6351 11.8758 41.6351 14.6772C41.6351 17.6812 43.6015 18.7449 46.9995 19.566C49.8896 20.232 50.3786 20.7899 50.3786 21.7872C50.3786 22.8927 49.3923 23.5802 47.8041 23.5802C46.0403 23.5802 44.6004 22.9846 42.9913 21.5928C42.9516 21.5573 42.8973 21.5427 42.8471 21.5448C42.7928 21.5489 42.7447 21.574 42.7113 21.6137L41.0562 23.5823C40.9872 23.6659 40.9956 23.7871 41.075 23.8581C42.9474 25.5299 45.2504 26.4118 47.7372 26.4118C51.2522 26.4118 53.5237 24.4913 53.5237 21.5176C53.53 19.0084 52.0275 17.6187 48.3474 16.7235L48.3411 16.7207ZM61.4774 13.7407C59.954 13.7407 58.7043 14.3409 57.6719 15.5707V14.1865C57.6719 14.0772 57.5842 13.9882 57.4755 13.9882H54.7692C54.6606 13.9882 54.5728 14.0772 54.5728 14.1865V29.5674C54.5728 29.676 54.6606 29.7659 54.7692 29.7659H57.4755C57.5842 29.7659 57.6719 29.676 57.6719 29.5674V24.7128C58.7043 25.8685 59.954 26.4348 61.4774 26.4348C64.309 26.4348 67.1762 24.2552 67.1762 20.0884C67.1804 15.9208 64.3132 13.7405 61.4795 13.7405L61.4774 13.7407ZM64.029 20.0884C64.029 22.2093 62.7229 23.6909 60.8505 23.6909C59.001 23.6909 57.6051 22.1424 57.6051 20.0884C57.6051 18.0342 59.001 16.4861 60.8505 16.4861C62.6915 16.4859 64.029 18.0005 64.029 20.0882V20.0884ZM74.5217 13.7407C70.8751 13.7407 68.0184 16.5485 68.0184 20.1337C68.0184 23.6805 70.8563 26.4578 74.4778 26.4578C78.137 26.4578 81.0021 23.6596 81.0021 20.0884C81.0021 16.5293 78.1558 13.7412 74.5217 13.7412V13.7407ZM74.5217 23.7118C72.5824 23.7118 71.1196 22.1529 71.1196 20.0874C71.1196 18.0124 72.5323 16.5068 74.4778 16.5068C76.4297 16.5068 77.9009 18.0651 77.9009 20.1327C77.9009 22.2072 76.4798 23.7118 74.5217 23.7118ZM88.7886 13.9882H85.8106V10.9442C85.8106 10.8351 85.7229 10.7461 85.6142 10.7461H82.9079C82.7993 10.7461 82.7094 10.8351 82.7094 10.9442V13.9882H81.4096C81.3009 13.9882 81.2131 14.0772 81.2131 14.1865V16.5118C81.2131 16.6209 81.3009 16.7101 81.4096 16.7101H82.7094V22.7276C82.7094 25.158 83.9194 26.3909 86.308 26.3909C87.2776 26.3909 88.0822 26.1903 88.8408 25.7598C88.9035 25.7264 88.9411 25.6595 88.9411 25.5884V23.3733C88.9411 23.3064 88.9056 23.2416 88.8471 23.2061C88.7886 23.1685 88.7154 23.1664 88.6548 23.1978C88.1344 23.459 87.6308 23.5802 87.0666 23.5802C86.1993 23.5802 85.8106 23.1852 85.8106 22.3033V16.7111H88.7886C88.8972 16.7111 88.985 16.6221 88.985 16.5128V14.1877C88.9892 14.0784 88.9014 13.9894 88.7906 13.9894L88.7886 13.9882ZM99.1621 14.0001V13.6262C99.1621 12.5264 99.5843 12.0359 100.529 12.0359C101.093 12.0359 101.547 12.1479 102.054 12.3172C102.117 12.3368 102.182 12.327 102.232 12.2896C102.284 12.2522 102.314 12.1922 102.314 12.1287V9.84876C102.314 9.76162 102.259 9.68451 102.174 9.6588C101.639 9.49936 100.953 9.33573 99.9249 9.33573C97.4276 9.33573 96.1048 10.743 96.1048 13.4039V13.9765H94.805C94.6963 13.9765 94.6065 14.0655 94.6065 14.1746V16.5118C94.6065 16.6209 94.6963 16.7101 94.805 16.7101H96.1048V25.9897C96.1048 26.1004 96.1947 26.1882 96.3033 26.1882H99.0075C99.1183 26.1882 99.206 26.1004 99.206 25.9897V16.7107H101.733L105.603 25.9897C105.164 26.9635 104.731 27.1579 104.142 27.1579C103.666 27.1579 103.162 27.0158 102.65 26.7336C102.602 26.7086 102.543 26.7044 102.493 26.719C102.441 26.7378 102.397 26.7754 102.376 26.8256L101.459 28.838C101.415 28.9342 101.453 29.0449 101.544 29.0951C102.502 29.6133 103.365 29.8349 104.433 29.8349C106.43 29.8349 107.536 28.9028 108.508 26.3993L113.201 14.2709C113.226 14.2099 113.218 14.1409 113.18 14.0868C113.145 14.0331 113.084 14.0007 113.019 14.0007H110.202C110.117 14.0007 110.041 14.0544 110.014 14.1336L107.128 22.3744L103.969 14.1282C103.939 14.0515 103.866 14.0007 103.785 14.0007H99.1621V14.0001ZM93.1478 13.9882H90.4416C90.3329 13.9882 90.243 14.0772 90.243 14.1865V25.9897C90.243 26.1004 90.3329 26.1882 90.4416 26.1882H93.1478C93.2565 26.1882 93.3463 26.1004 93.3463 25.9897V14.1873C93.3463 14.078 93.2586 13.989 93.1478 13.989V13.9882ZM91.8103 8.6135C90.7383 8.6135 89.8689 9.48117 89.8689 10.553C89.8689 11.6255 90.7383 12.4942 91.8103 12.4942C92.8824 12.4942 93.7496 11.6255 93.7496 10.553C93.7496 9.48138 92.8803 8.6135 91.8103 8.6135ZM115.512 17.7834C114.443 17.7834 113.609 16.9235 113.609 15.8792C113.609 14.8349 114.453 13.9652 115.523 13.9652C116.593 13.9652 117.427 14.8249 117.427 15.8683C117.427 16.9126 116.582 17.7834 115.512 17.7834ZM115.523 14.1545C114.547 14.1545 113.809 14.9298 113.809 15.8792C113.809 16.8282 114.543 17.593 115.512 17.593C116.488 17.593 117.226 16.8183 117.226 15.8683C117.226 14.9194 116.493 14.1545 115.523 14.1545ZM115.945 16.0641L116.484 16.8181H116.029L115.544 16.1264H115.128V16.8181H114.748V14.8195H115.638C116.104 14.8195 116.409 15.0571 116.409 15.4571C116.411 15.7847 116.221 15.9849 115.947 16.0641H115.945ZM115.623 15.1624H115.128V15.7946H115.623C115.87 15.7946 116.018 15.6736 116.018 15.4782C116.018 15.2725 115.87 15.1624 115.623 15.1624Z" fill="#E6E6E6"/>
</svg>
